<?xml version="1.0" encoding="utf-8"?>
<!-- Generator: Adobe Illustrator 26.1.0, SVG Export Plug-In . SVG Version: 6.00 Build 0)  -->
<svg version="1.1" id="Calque_1" xmlns="http://www.w3.org/2000/svg" xmlns:xlink="http://www.w3.org/1999/xlink" x="0px" y="0px"
	 viewBox="0 0 521.63 428.06" style="enable-background:new 0 0 521.63 428.06;" xml:space="preserve">
<style type="text/css">
	.st0{opacity:0.7;fill:#F39200;enable-background:new    ;}
	.st1{fill:#E04D01;}
	.st2{opacity:0.83;fill:#E04D01;enable-background:new    ;}
	.st3{fill:#2A2550;}
	.st4{font-family:'Bauhaus93';}
	.st5{font-size:60px;}
</style>
<g id="Calque_2_00000111167904432311014910000007352913407145247626_">
	<rect x="-2.68" class="st0" width="527" height="428.06"/>
</g>
<g id="Calque_1_00000106848696369762616780000004723751639218970552_">
	<path class="st1" d="M156.9,206.66c-0.2,36.2-37.62,65.79-85.5,69.34c3.41,0.29,6.88,0.45,10.39,0.47
		c52.75,0.29,95.68-30.91,95.89-69.69c0.22-38.78-42.37-70.46-95.11-70.75c-3.51-0.02-6.98,0.1-10.4,0.36
		C120.01,140.45,157.1,170.46,156.9,206.66z"/>
	<path class="st2" d="M58.24,206.13c-0.2,36.2,36.89,66.21,84.72,70.28c-3.42,0.25-6.88,0.38-10.4,0.36
		c-52.75-0.29-95.33-31.97-95.11-70.75s43.15-69.99,95.89-69.69c3.51,0.02,6.98,0.18,10.39,0.47
		C95.86,140.34,58.44,169.93,58.24,206.13z"/>
	<path class="st2" d="M119.52,206.55c-0.2,36.2,36.89,66.21,84.72,70.28c-3.42,0.25-6.88,0.38-10.4,0.36
		c-52.75-0.29-95.33-31.97-95.11-70.75s43.15-69.99,95.89-69.69c3.51,0.02,6.98,0.18,10.39,0.47
		C157.14,140.76,119.72,170.35,119.52,206.55z"/>
	<path class="st2" d="M472.74,207.02c-0.2,36.2-37.62,65.79-85.5,69.34c3.41,0.29,6.88,0.45,10.39,0.47
		c52.75,0.29,95.68-30.91,95.89-69.69c0.22-38.78-42.37-70.46-95.11-70.75c-3.51-0.02-6.98,0.1-10.4,0.36
		C435.85,140.81,472.94,170.82,472.74,207.02z"/>
	<path class="st1" d="M115.75,206.19c-0.2,36.2,36.89,66.21,84.72,70.28c-3.42,0.25-6.88,0.38-10.4,0.36
		c-52.75-0.29-95.33-31.97-95.11-70.75s43.15-69.99,95.89-69.69c3.51,0.02,6.98,0.18,10.39,0.47
		C153.38,140.39,115.96,169.99,115.75,206.19z"/>
	<text transform="matrix(1 0 0 1 117.6454 224.1067)" class="st3 st4 st5">Opportunité</text>
</g>
</svg>
